<svg viewBox="-47 0 512 512" xmlns="http://www.w3.org/2000/svg"><path d="m417 114-11-33c-5-13-17-22-30-22h-95V28c0-15-13-28-28-28h-87c-16 0-28 13-28 28v31H43c-14 0-26 9-30 22L1 114a25 25 0 0 0 24 34h12l26 321c2 24 22 43 46 43h205c24 0 44-19 46-43l26-321h7a25 25 0 0 0 24-34zM168 30h83v29h-83zm162 437c0 8-7 15-16 15H109c-8 0-15-7-16-15L67 148h289zM32 118l9-28 2-1h333l1 1 9 28zm0 0"/><path d="M283 466c8 0 15-6 15-14l14-271a15 15 0 0 0-30-1l-14 270c0 8 6 16 15 16zM121 452a15 15 0 0 0 30-2l-15-270a15 15 0 1 0-30 1zM209 466c9 0 15-7 15-15V181a15 15 0 1 0-30 0v270c0 8 7 15 15 15zm0 0"/></svg>