<svg xmlns="http://www.w3.org/2000/svg" viewBox="0 0 468 468"><path d="M 12.001953 26 C 5.3739531 26 0 31.373 0 38 L 0 430 C 1.1842379e-15 436.627 5.3739531 442 12.001953 442 L 310.88281 442 C 317.50981 442 322.88377 436.627 322.88477 430 L 322.88477 383.83203 C 322.88477 377.20503 317.50981 371.83203 310.88281 371.83203 C 304.25481 371.83203 298.88281 377.20503 298.88281 383.83203 L 298.88281 418 L 24.001953 418 L 24.001953 50 L 298.88281 50 L 298.88281 124.16797 C 298.88281 130.79497 304.25581 136.16797 310.88281 136.16797 C 317.51081 136.16797 322.88477 130.79497 322.88477 124.16797 L 322.88477 38 C 322.88477 31.373 317.50981 26 310.88281 26 L 12.001953 26 z M 362.10742 128.53516 C 355.77784 128.46853 349.38264 133.38712 349.61914 140.5 L 349.61914 175.74023 L 194.56445 175.74023 C 187.93645 175.74023 182.5625 181.11323 182.5625 187.74023 L 182.5625 280.25977 C 182.5625 286.88677 187.93745 292.25977 194.56445 292.25977 L 349.61914 292.25977 L 349.61914 327.5 C 352.12214 345.14 367.76855 338.2963 370.06055 336.0293 L 464.4707 242.60938 C 469.1757 238.13738 469.17852 230.03559 464.47852 225.55859 L 370.06836 131.97852 C 367.84773 129.6257 364.9845 128.56544 362.10742 128.53516 z M 373.62109 169.29297 L 438.97656 234.07227 L 373.62109 298.74219 L 373.62109 280.25977 C 373.62109 273.63277 368.24614 268.25977 361.61914 268.25977 L 206.56445 268.25977 L 206.56445 199.74023 L 361.61914 199.74023 C 368.24714 199.74023 373.62109 194.36723 373.62109 187.74023 L 373.62109 169.29297 z M 310.91406 317.16016 A 13.971 14 0 1 0 310.91406 345.16016 A 13.971 14 0 1 0 310.91406 317.16016 z"></path></svg>