<svg xmlns="http://www.w3.org/2000/svg" viewBox="0 0 345.8 345.8" xml:space="preserve"><path d="M339.8 260.4h.4l.3-.1.4-.2.3-.1.3-.2.4-.1.3-.2.3-.2.3-.2.3-.2.5-.4v-.1l.1-.1.4-.5.2-.3.3-.3.2-.3.1-.3.2-.3.2-.4v-.3l.2-.3.1-.4v-.4l.2-.4V92.8c0-4.2-3.3-7.5-7.5-7.5H102a7.6 7.6 0 0 0-.8 0 7 7 0 0 0-1 .3 7.7 7.7 0 0 0-.8.2 7 7 0 0 0-1 .4 8 8 0 0 0-.5.4 7 7 0 0 0-.6.5 7.5 7.5 0 0 0-.3.2 8 8 0 0 0-.3.3l-.1.2h-.1a7.4 7.4 0 0 0-.3.4l-.2.3-.2.3-.2.3-.1.3-.2.4-.1.3-.1.3-.1.4-.1.4-.1.3v.7l-.1.4V139a7.5 7.5 0 1 0 15 0v-29.6l66.7 59a7.6 7.6 0 0 0-1 .9L109.6 235v-49.3a7.5 7.5 0 1 0-15 0v9.1H55.8a7.5 7.5 0 1 0 0 15h38.8v43.3c0 4.1 3.3 7.5 7.5 7.5h237l.3-.1h.4zm-9-25.4-65.7-65.7v-.1l49.3-42a7.5 7.5 0 0 0-9.7-11.4l-84.4 71.6-98.4-87.1h209V235zm-145-55.1a7.5 7.5 0 0 0 1.4-1.8l28 24.9a7.5 7.5 0 0 0 5 1.8 7.5 7.5 0 0 0 4.9-1.7l28.5-24.3c.3.4.6.8 1 1l65.6 65.8h-200l65.7-65.7z"/><path d="M7.5 170.7h126.7a7.5 7.5 0 1 0 0-15H7.5a7.5 7.5 0 1 0 0 15zm13.1-41.4h56.9a7.5 7.5 0 1 0 0-15H20.6a7.5 7.5 0 1 0 0 15zm41.9 97.2h-55a7.5 7.5 0 1 0 0 15h55a7.5 7.5 0 1 0 0-15z"/></svg>