<svg xmlns="http://www.w3.org/2000/svg" xml:space="preserve" viewBox="0 0 592.8 592.8"><path d="M589 356 484 554c-5 10-19 21-30 21H33a33 33 0 0 1-33-34V215c0-18 15-33 33-33h31v28H44a15 15 0 0 0-16 15v306c0 9 7 15 16 15h21l99-200c6-12 16-21 27-21h244v-81c16 2 28 15 28 31v50h112c13 0 24 13 14 31zM84 445V45c0-15 12-27 27-27h220c3 0 6 1 9 4l71 77c2 2 3 6 3 9v200h-23V125c0-3-2-6-6-6h-54c-6 0-11-5-11-11V47c0-3-3-6-6-6H111c-2 0-4 2-4 4v375l-18 36s-5-1-5-11zM343 96h34l-34-37v37zm12 47H143a14 14 0 0 0 0 28h212a14 14 0 0 0 0-28zm14 96c0-7-6-14-14-14H143a14 14 0 0 0 0 29h212c8 0 14-7 14-15zm-240 83c0 8 6 15 14 15h5c9-25 31-29 31-29h-36c-8 0-14 7-14 14z"/></svg>